HIERARCHY
ROOT Hips
{
  OFFSET -6.66364 93.2088 94.7139
  CHANNELS 6 Xposition Yposition Zposition Zrotation Xrotation Yrotation
  JOINT RightUpLeg
  {
    OFFSET -8.9458 -8.66707 0.101652
    CHANNELS 3 Zrotation Xrotation Yrotation
    JOINT RightLeg
    {
      OFFSET 0 -44.4227 1.3727
      CHANNELS 3 Zrotation Xrotation Yrotation
      JOINT RightFoot
      {
        OFFSET 0.253549 -42.0924 -1.46059
        CHANNELS 3 Zrotation Xrotation Yrotation
        JOINT RightToes
        {
          OFFSET 0.04 -4.41509 8.4991
          CHANNELS 3 Zrotation Xrotation Yrotation
          End Site
          {
            OFFSET -0.08 -0.137448 9.77979
          }
        }
      }
    }
  }
  JOINT Spine
  {
    OFFSET 0 11.8905 0
    CHANNELS 3 Zrotation Xrotation Yrotation
    JOINT Spine1
    {
      OFFSET 0 25.6574 0.127663
      CHANNELS 3 Zrotation Xrotation Yrotation
      JOINT HEad
      {
        OFFSET 0 8.73416 0.011341
        CHANNELS 3 Zrotation Xrotation Yrotation
        End Site
        {
          OFFSET -0.29 12.7742 2.51395
        }
      }
      JOINT LeftShoulder1
      {
        OFFSET 8.99 -0.362252 -0.22
        CHANNELS 3 Zrotation Xrotation Yrotation
        JOINT LeftArm
        {
          OFFSET 10.2827 -0.00338 0.322123
          CHANNELS 3 Zrotation Xrotation Yrotation
          JOINT LeftForeArm
          {
            OFFSET 32.7669 0.099144 -1.42434
            CHANNELS 3 Zrotation Xrotation Yrotation
            JOINT LeftHand
            {
              OFFSET 27.5643 0.085362 1.02216
              CHANNELS 3 Zrotation Xrotation Yrotation
              End Site
              {
                OFFSET 16.7443 -0.6 1.50291
              }
            }
          }
        }
      }
      JOINT RightShoulder
      {
        OFFSET -8.99 -0.362252 -0.22
        CHANNELS 3 Zrotation Xrotation Yrotation
        JOINT RightArm
        {
          OFFSET -10.2827 -0.00338 0.322123
          CHANNELS 3 Zrotation Xrotation Yrotation
          JOINT RightForeArm
          {
            OFFSET -32.8971 0.099144 -1.42434
            CHANNELS 3 Zrotation Xrotation Yrotation
            JOINT RightHand
            {
              OFFSET -27.4921 0.085362 1.02216
              CHANNELS 3 Zrotation Xrotation Yrotation
              End Site
              {
                OFFSET -16.6312 -0.6 1.50291
              }
            }
          }
        }
      }
    }
  }
  JOINT LeftUpLeg
  {
    OFFSET 8.9458 -8.66707 0.101652
    CHANNELS 3 Zrotation Xrotation Yrotation
    JOINT LeftLeg
    {
      OFFSET 0 -44.4227 1.3727
      CHANNELS 3 Zrotation Xrotation Yrotation
      JOINT LeftFoot
      {
        OFFSET -0.253549 -42.0924 -1.46059
        CHANNELS 3 Zrotation Xrotation Yrotation
        JOINT LeftToes
        {
          OFFSET -0.04 -4.41509 8.4991
          CHANNELS 3 Zrotation Xrotation Yrotation
          End Site
          {
            OFFSET 0.08 -0.047448 9.77979
          }
        }
      }
    }
  }
}
MOTION
Frames:	14
Frame Time:	0.0166667
-1.88791 96.7717 99.9387 -33.2922 40.9595 -173.737 -60.9423 11.8277 39.7833 42.6724 27.0396 -36.3813 16.9181 0.354502 -0.373344 0.0462048 0.000533403 0.662642 -20.2062 35.8427 10.4269 -0.0446289 0.0940094 0.0383426 -11.188 15.4852 7.34579 8.44835e-016 -7.95139e-016 -0 -52.5188 -78.1242 -16.4413 -36.3073 33.7728 -63.1056 9.34001 18.0507 -28.5763 9.66293 7.83156 7.69669 84.3155 13.3362 55.1615 20.1616 49.6468 83.8919 19.6754 22.3936 3.20908 -1.67551 -10.9504 36.4091 9.19369 67.6994 27.1846 -36.6065 -7.72798 -0.996176 -1.26095e-008 1.56034e-007 -4.88728e-009 
-0.477687 97.703 101.66 -33.5198 40.0715 -172.805 -59.5379 11.0704 38.0183 44.79 26.5594 -38.7291 8.54292 -0.414264 0.0213862 0.0462048 0.000533403 0.662642 -22.6358 37.3028 12.0055 -0.0512791 0.0875895 0.0312927 -11.0521 14.6518 7.29726 1.09332e-015 -3.97569e-016 -3.97569e-016 -75.8293 -82.8622 -41.7781 -40.7865 39.5011 -59.7633 11.6196 21.7287 -19.8118 10.8967 6.36653 6.92861 84.4827 12.3274 55.1957 19.7257 49.9315 85.3129 19.8801 22.0519 2.25609 -2.99674 -12.4603 40.1334 18.138 68.0364 15.8776 -35.5673 -7.69663 -0.744332 -1.26095e-008 1.56034e-007 -4.88727e-009 
1.07464 98.3873 103.442 -32.9749 37.4537 -171.15 -57.2607 10.6454 34.0587 46.2451 25.6972 -40.7987 0.219897 -1.31748 0.243954 0.0462048 0.000533403 0.662642 -24.1803 38.1306 12.096 -0.0548493 0.0755897 0.0219126 -10.2284 13.164 6.80383 1.32937e-015 1.98785e-016 7.95139e-016 -120.586 -83.1303 -88.9169 -45.2569 43.836 -56.9232 12.3624 17.7742 -24.6692 12.4701 4.28762 6.03128 84.697 11.2463 55.1747 19.1378 50.2703 86.7209 19.8962 21.8634 1.79794 -2.21297 -16.6092 42.8979 30.6684 70.5206 0.324115 -34.4989 -7.63343 -0.687949 -1.26095e-008 1.56034e-007 -4.88727e-009 
2.80837 98.8205 105.215 -32.4694 35.0857 -169.639 -54.9314 10.3164 30.4227 47.0771 24.543 -42.5122 -8.01097 -2.25522 0.214302 0.0462048 0.000533403 0.662642 -26.7787 39.4952 13.1673 -0.0592096 0.0648599 0.0119625 -9.9925 11.9463 6.95719 -1.98785e-016 -1.59028e-015 -1.59028e-015 -145.138 -79.4427 -116.024 -49.4229 47.3727 -54.3925 14.1396 19.8017 -19.1355 14.272 1.76982 5.08375 85.1003 10.155 55.1701 18.4853 50.6241 88.0558 19.9143 21.7216 1.31011 0.365273 -21.657 46.1303 50.152 73.8216 -22.2834 -25.1331 -7.44019 0.636755 -1.26095e-008 1.56034e-007 -4.88728e-009 
4.66261 98.9676 106.925 -31.9459 32.8262 -168.189 -52.525 9.98709 26.9085 47.4322 23.2228 -43.9568 -16.1294 -3.20044 -0.0445539 0.0462048 0.000533403 0.662642 -29.1428 40.6059 14.1525 0.00324997 -0.00425995 -0.00321015 -9.96342 11.1012 7.14397 9.93923e-017 0 -0 -154.306 -75.2482 -127.178 -54.0511 50.752 -51.5606 15.6382 20.5511 -16.0973 15.7429 -0.274683 3.91058 85.5302 9.18711 55.0966 17.7818 51.0048 89.5917 19.9027 21.5971 0.897327 3.42745 -26.2866 49.6326 75.4598 74.7182 -50.0506 -17.4703 -7.12396 1.04001 -1.26095e-008 1.56034e-007 -4.88728e-009 
6.59336 98.9262 108.535 -31.3388 30.6752 -166.846 -49.9595 9.68226 23.5259 47.2935 21.7374 -45.0253 -24.1094 -3.99707 -0.551519 0.0462048 0.000533403 0.662642 -31.2196 41.4545 15.0289 0.00618995 -0.00750995 -0.00385027 -9.99181 10.4991 7.34736 -0 0 1.59028e-015 -158.365 -71.131 -132.962 -59.2464 53.8162 -48.2051 17.0618 20.6026 -14.5305 14.1531 0.253166 2.77737 88.4724 8.00048 57.3564 16.9714 51.4035 91.2394 19.8768 21.5288 0.542059 6.80533 -30.2428 53.2028 98.1718 73.0289 -74.4134 -11.8025 -6.84307 0.775857 -1.26095e-008 1.56034e-007 -4.88727e-009 
8.55539 98.8175 110.045 -30.6135 28.6263 -165.629 -47.1512 9.43916 20.2722 46.5734 20.074 -45.5887 -31.9091 -4.45536 -1.25332 0.0462048 0.000533403 0.662642 -32.9877 42.0414 15.7813 0.0064009 -0.00960967 -0.00430767 -10.1173 10.173 7.60835 -3.97569e-016 1.59028e-015 1.59028e-015 -160.355 -67.2803 -136.493 -65.0702 56.4303 -44.2111 18.4421 20.3146 -13.8151 13.2967 0.471477 1.52621 90.8646 7.03412 58.8402 16.1619 51.7666 92.8451 19.8485 21.5203 0.242909 10.4776 -33.4105 56.6584 112.781 70.0735 -89.438 -8.44554 -6.81381 -0.127367 -1.26095e-008 1.56034e-007 -4.88727e-009 
10.5214 98.6753 111.522 -29.0884 26.3243 -164.631 -44.1818 8.85445 17.0007 44.5114 19.555 -44.8313 -28.2741 -4.88795 -1.24023 0.0462048 0.000533403 0.662642 -33.5583 42.2295 15.7992 0.00546176 -0.0115047 -0.00465279 -10.2862 9.90819 7.89451 3.97569e-016 1.59028e-015 1.59028e-015 -161.244 -63.6349 -138.709 -74.2556 58.0391 -37.6015 17.4 16.1654 -13.6581 13.2924 0.435034 -0.10906 93.3319 5.38872 60.0665 16.5423 51.6536 93.8931 14.4751 23.0559 2.56025 12.9426 -37.3119 59.4608 110.074 67.8763 -87.7455 -3.84869 -4.95824 0.111645 -1.26095e-008 1.56034e-007 -4.88728e-009 
12.4407 98.5089 112.948 -26.8055 23.783 -163.766 -40.4527 7.77471 13.4101 42.3467 19.0533 -43.345 -24.6792 -5.19125 -1.07342 0.0462048 0.000533403 0.662642 -32.9325 42.0149 15.0648 0.00465931 -0.0127929 -0.00476015 -10.4952 9.69465 8.20678 1.59028e-015 0 1.59028e-015 -161.415 -60.184 -140.062 -85.8294 57.9593 -28.969 15.6048 10.661 -14.1729 13.8798 0.188455 -1.92497 96.1571 3.14245 61.1807 18.2683 51.226 94.0886 13.3956 23.2217 4.11795 14.8527 -40.4594 61.2359 102.21 66.6841 -81.7024 -0.670907 -3.28709 0.0549023 -1.26095e-008 1.56034e-007 -4.88727e-009 
14.2953 98.3479 114.318 -23.8781 21.0261 -162.939 -36.1559 6.05633 9.63142 40.0911 18.6283 -41.1889 -21.0714 -5.29216 -0.868718 0.0462048 0.000533403 0.662642 -31.1519 41.2799 13.5802 0.00455914 -0.013072 -0.0043502 -10.7974 9.63446 8.57677 1.59028e-015 3.18055e-015 -3.18055e-015 -161.134 -57.0432 -140.742 -95.8927 56.9618 -21.3589 15.7683 9.06636 -14.2293 14.8157 -0.122989 -3.75078 99.4979 0.322996 62.3941 21.5371 51.9432 92.7827 13.8301 22.8633 5.18781 16.5146 -43.2939 62.1984 92.0169 65.5969 -73.7944 1.47338 -1.70721 -0.176106 -1.26095e-008 1.56034e-007 -4.88727e-009 
16.0553 98.2525 115.597 -19.195 17.6638 -162.365 -30.6589 3.08053 5.45033 38.0215 18.0537 -39.2091 -17.6013 -5.07936 -0.643702 0.0462048 0.000533403 0.662642 -26.4301 38.9514 10.3281 0.0211297 -0.0119398 -0.0156907 -11.3313 9.98191 9.16098 2.38542e-015 4.77083e-015 -0 -160.541 -55.0457 -140.327 -101.789 56.0188 -16.6799 19.2146 14.5954 -13.2475 16.9207 -0.74257 -4.85498 104.035 -4.71261 64.4711 29.7742 55.9261 86.0383 16.9012 21.7272 5.16586 18.6188 -46.1551 61.2133 80.8107 64.8414 -64.6869 0.985054 -0.181274 -0.551182 -1.26095e-008 1.56034e-007 -4.88727e-009 
17.7253 98.2103 116.763 -15.0799 14.7672 -161.652 -25.9226 0.0100994 2.25098 36.1057 17.3954 -37.4592 -14.1342 -4.64456 -0.446402 0.0462048 0.000533403 0.662642 -21.9172 36.2346 7.26563 0.0182997 -0.00710981 -0.0134606 -10.6833 9.85568 9.96317 1.59028e-015 1.59028e-015 -3.18055e-015 -160.093 -54.0269 -139.396 -105.328 55.4552 -13.7276 18.6598 13.4899 -13.5411 18.2892 -0.735536 -5.69353 107.284 -7.81512 66.217 36.4598 58.2476 80.3572 16.8633 21.512 5.2338 19.583 -47.6073 58.5982 68.341 63.8458 -53.9732 1.09303 1.28858 -0.891846 -1.26095e-008 1.56034e-007 -4.88728e-009 
18.1623 98.2502 117.079 -11.5122 12.3282 -160.886 -22.7451 -2.41696 0.176665 34.8588 16.9478 -36.065 -9.88288 -4.59293 -0.156416 0.0462048 0.000533403 0.662642 -17.7313 33.26 4.51052 0.014276 -0.00104984 -0.0102404 -10.3703 10.1041 10.879 1.59028e-015 3.18055e-015 -6.36111e-015 -160.013 -53.8386 -138.263 -107.508 55.2705 -11.7933 20.2304 16.5481 -13.1587 19.0301 -0.194774 -6.29182 109.459 -9.69722 67.6057 41.5011 59.4551 76.004 18.4815 20.874 4.98726 19.3005 -47.5597 54.4337 57.5798 62.8536 -44.4123 0.122872 1.04983 -0.825854 -1.26095e-008 1.56034e-007 -4.88727e-009 
18.4992 98.3032 117.251 -8.47862 10.3242 -160.126 -20.1868 -4.52598 -1.2401 33.7492 16.531 -34.9516 -5.56996 -4.43332 0.109644 0.0462048 0.000533403 0.662642 -13.9357 30.1491 2.12623 0.00984174 0.00524011 -0.00705015 -10.3337 10.6665 11.8674 -7.95139e-016 1.59028e-015 -6.36111e-015 -160.351 -54.3397 -137.101 -108.962 55.3962 -10.4444 19.5837 15.8713 -13.3785 19.2572 0.779179 -6.70318 110.793 -10.8085 68.6891 45.0231 59.9089 72.9262 18.3753 20.7915 4.87547 18.947 -46.4015 49.4433 46.1567 61.4306 -33.7833 -0.881639 0.759858 -0.72973 -1.26095e-008 1.56034e-007 -4.88727e-009 
